<?xml version="1.0" encoding="UTF-8"?>
<svg xmlns="http://www.w3.org/2000/svg" xmlns:xlink="http://www.w3.org/1999/xlink" width="1024" height="1024" viewBox="0 0 1024 1024">
  <defs>
    <linearGradient id="_未命名的渐变_2" data-name="未命名的渐变 2" x1="68.9" y1="-398.71" x2="29.6" y2="-433.86" gradientTransform="translate(0 -393.29) scale(1 -1)" gradientUnits="userSpaceOnUse">
      <stop offset="0" stop-color="#beff50"/>
      <stop offset=".33" stop-color="#50b5ff"/>
      <stop offset=".77" stop-color="#3281ff"/>
    </linearGradient>
  </defs>
  <rect x="0" y="0" width="1024" height="1024" fill="#FFFFFF"/>
  <!-- mark(鸟)+ 皇冠;同一变换将整组 mark+皇冠居中铺在白底 1024(去掉 UReka 文字 path)。
       translate_y 由 297.15 下移到 373.4 以重新居中加入皇冠后更高的内容(皇冠在鸟上方,y 为负)。 -->
  <g transform="translate(49.15,373.4) scale(9.3761)">
    <path d="M56.16.04c5.82-.48,11.19,3.16,12.9,8.75l2.63,8.59c9.36.52,15.52,2.09,15.72,4.43.18,2.13-4.63,4.45-12.4,6.42l.75,2.46c1.85,6.07-2.37,12.29-8.69,12.81l-32.93,2.7c-.85.07-1.63-.46-1.88-1.27l-3.74-12.24c-10.13-.44-16.89-2.05-17.1-4.5-.28-3.33,11.69-7.16,28.1-9.32.01,0,.03,0,.04,0,1.17-.12,1.98.07,3.26.57h0s.1.04.15.06c.68.27,1.34.61,1.96.99.1.06.21.13.31.2.51.34.98.72,1.42,1.13.09.08.17.17.26.25.17.17.33.35.49.53.08.09.16.19.23.28l2.5,3.14c.3.38.76.51,1.14.43.3-.06.55-.27.61-.61l.64-3.45c.02-.1.04-.21.07-.31.22-.95.66-1.81,1.28-2.53.08-.09.16-.18.25-.27.32-.33.67-.62,1.07-.87l1.65-1.06h0s1.25-.81,1.25-.81c.64-.41.33-1.43-.5-1.69l-3.79-1.21c-1.83-.58-3.49-1.73-4.69-3.25l-2.47-3.14c-.54-.69-1.56-.58-1.69.17h-.01s-.63,3.45-.63,3.45c-.31,1.66-1.21,3.02-2.59,4.06-.49.37-1.16.77-1.74,1.11-.72.39-2.88,1.26-4.99,1.59-2.18.34-4.71.18-7.56-.14-2.85-.32-4.09-1.6-4.42-2.9,0-.02-.01-.04-.02-.06-1.45-6.01,2.8-11.99,9.06-12.51L56.16.04Z" fill="url(#_未命名的渐变_2)"/>
    <path fill="#E0922E" d="M27.5 -0.3C27.5 -8.3 31 -11.8 38 -11.8C45 -11.8 48.5 -8.3 48.5 -0.3Z"/>
    <path fill="#B0681A" d="M25.5 -0.9Q38 -4.9 50.5 -0.9L50.5 1.9Q38 -2.1 25.5 1.9Z"/>
    <path fill="#E0922E" d="M40.700 -12.700C40.700 -11.209 39.491 -10.000 38.000 -10.000C36.509 -10.000 35.300 -11.209 35.300 -12.700C35.300 -14.191 36.509 -15.400 38.000 -15.400C39.491 -15.400 40.700 -14.191 40.700 -12.700Z"/>
  </g>
</svg>
