<?xml version="1.0" encoding="UTF-8"?>
<svg xmlns="http://www.w3.org/2000/svg" xmlns:xlink="http://www.w3.org/1999/xlink" viewBox="0 -16 101.18 104.91">
<defs>
    <linearGradient id="_未命名的渐变_2" data-name="未命名的渐变 2" x1="68.9" y1="-398.71" x2="29.6" y2="-433.86" gradientTransform="translate(0 -393.29) scale(1 -1)" gradientUnits="userSpaceOnUse">
      <stop offset="0" stop-color="#beff50"/>
      <stop offset=".33" stop-color="#50b5ff"/>
      <stop offset=".77" stop-color="#3281ff"/>
    </linearGradient>
  </defs>
  <path fill="url(#_未命名的渐变_2)" d="M56.16.04c5.82-.48,11.19,3.16,12.9,8.75l2.63,8.59c9.36.52,15.52,2.09,15.72,4.43.18,2.13-4.63,4.45-12.4,6.42l.75,2.46c1.85,6.07-2.37,12.29-8.69,12.81l-32.93,2.7c-.85.07-1.63-.46-1.88-1.27l-3.74-12.24c-10.13-.44-16.89-2.05-17.1-4.5-.28-3.33,11.69-7.16,28.1-9.32.01,0,.03,0,.04,0,1.17-.12,1.98.07,3.26.57h0s.1.04.15.06c.68.27,1.34.61,1.96.99.1.06.21.13.31.2.51.34.98.72,1.42,1.13.09.08.17.17.26.25.17.17.33.35.49.53.08.09.16.19.23.28l2.5,3.14c.3.38.76.51,1.14.43.3-.06.55-.27.61-.61l.64-3.45c.02-.1.04-.21.07-.31.22-.95.66-1.81,1.28-2.53.08-.09.16-.18.25-.27.32-.33.67-.62,1.07-.87l1.65-1.06h0s1.25-.81,1.25-.81c.64-.41.33-1.43-.5-1.69l-3.79-1.21c-1.83-.58-3.49-1.73-4.69-3.25l-2.47-3.14c-.54-.69-1.56-.58-1.69.17h-.01s-.63,3.45-.63,3.45c-.31,1.66-1.21,3.02-2.59,4.06-.49.37-1.16.77-1.74,1.11-.72.39-2.88,1.26-4.99,1.59-2.18.34-4.71.18-7.56-.14-2.85-.32-4.09-1.6-4.42-2.9,0-.02-.01-.04-.02-.06-1.45-6.01,2.8-11.99,9.06-12.51L56.16.04Z"/>
  <path fill="#E0922E" d="M27.5 -0.3C27.5 -8.3 31 -11.8 38 -11.8C45 -11.8 48.5 -8.3 48.5 -0.3Z"/>
  <path fill="#B0681A" d="M25.5 -0.9Q38 -4.9 50.5 -0.9L50.5 1.9Q38 -2.1 25.5 1.9Z"/>
  <path fill="#E0922E" d="M40.700 -12.700C40.700 -11.209 39.491 -10.000 38.000 -10.000C36.509 -10.000 35.300 -11.209 35.300 -12.700C35.300 -14.191 36.509 -15.400 38.000 -15.400C39.491 -15.400 40.700 -14.191 40.700 -12.700Z"/>
  <path fill="#18191b" d="M7.6002 80.577C7.6003 82.0106 7.9742 83.1114 8.7213 83.8787C9.4685 84.6259 10.5187 84.9998 11.8717 84.9998C13.2448 84.9998 14.3051 84.6258 15.0523 83.8787C15.7994 83.1114 16.1734 82.0106 16.1734 80.577V67.49H20.4449V80.5467C20.4448 82.3439 20.0508 83.8689 19.2633 85.1209C18.4959 86.3527 17.4557 87.282 16.1432 87.908C14.8507 88.534 13.4065 88.8465 11.8111 88.8465C10.2359 88.8465 8.8019 88.5341 7.5094 87.908C6.2371 87.282 5.2273 86.3527 4.4801 85.1209C3.7329 83.8689 3.359 82.3439 3.359 80.5467V67.49H7.6002V80.577Z"/>
  <path fill="#3F6FE0" d="M32.4791 67.49C34.115 67.4901 35.509 67.7824 36.66 68.368C37.811 68.9334 38.669 69.7114 39.235 70.701C39.821 71.6703 40.113 72.7609 40.113 73.9725C40.113 75.3659 39.71 76.6287 38.902 77.7596C38.094 78.8703 36.892 79.6372 35.296 80.0613L40.356 88.6346H35.448L30.7828 80.3944H28.7838V88.6346H24.5426V67.49H32.4791ZM28.7838 77.2137H32.3277C33.4788 77.2137 34.337 76.9415 34.903 76.3963C35.468 75.8308 35.752 75.0528 35.752 74.0633C35.751 73.0942 35.468 72.3471 34.903 71.8221C34.337 71.2768 33.4788 71.0037 32.3277 71.0037H28.7838V77.2137Z"/>
  <path fill="#3F6FE0" d="M52.385 71.59c1.6 0 3.02 .34 4.27 1.03 1.27 .69 2.25 1.67 2.94 2.94 .71 1.25 1.06 2.7 1.06 4.33 0 .61 -.04 1.15 -.12 1.64h-12.27c.1 1.21 .53 2.16 1.27 2.85 .75 .69 1.67 1.03 2.76 1.03 1.58 0 2.7 -.68 3.36 -2.03h4.57c-.48 1.62 -1.41 2.95 -2.79 4 -1.37 1.03 -3.06 1.54 -5.06 1.54 -1.62 0 -3.07 -.35 -4.36 -1.06 -1.27 -.73 -2.27 -1.75 -3 -3.06 -.71 -1.31 -1.06 -2.83 -1.06 -4.54s.35 -3.26 1.06 -4.57c.71 -1.31 1.7 -2.32 2.97 -3.03 1.27 -.71 2.74 -1.06 4.39 -1.06ZM52.265 75.07c-1.05 0 -1.94 .32 -2.66 .97 -.71 .63 -1.14 1.5 -1.3 2.63h7.97c-.02 -1.09 -.41 -1.96 -1.18 -2.6 -.77 -.67 -1.71 -1 -2.82 -1Z"/>
  <path fill="#3F6FE0" d="M67.995 78.98l5.63 -7.12h5.51l-7.39 8.42 7.45 8.36h-5.51l-5.7 -7.15v7.15h-4.24v-22.42h4.24v12.75Z"/>
  <path fill="#3F6FE0" d="M88.015 71.59c1.25 0 2.34 .25 3.27 .76 .95 .5 1.71 1.14 2.27 1.91v-2.39h4.27v16.78h-4.27v-2.45c-.55 .79 -1.3 1.44 -2.27 1.97 -.95 .5 -2.05 .76 -3.3 .76 -1.41 0 -2.71 -.36 -3.88 -1.09 -1.15 -.73 -2.07 -1.75 -2.76 -3.06 -.67 -1.33 -1 -2.86 -1 -4.57s.33 -3.2 1 -4.51c.69 -1.31 1.61 -2.32 2.76 -3.03 1.17 -.71 2.47 -1.06 3.91 -1.06ZM89.105 75.31c-.79 0 -1.52 .19 -2.18 .58 -.67 .38 -1.21 .95 -1.64 1.7 -.4 .73 -.61 1.6 -.61 2.6 0 1.01 .2 1.9 .61 2.67 .42 .75 .97 1.32 1.64 1.73 .69 .4 1.41 .61 2.18 .61s1.52 -.19 2.21 -.58c.69 -.4 1.23 -.97 1.64 -1.7 .4 -.75 .61 -1.64 .61 -2.67 0 -1.03 -.2 -1.91 -.61 -2.63 -.4 -.75 -.95 -1.31 -1.64 -1.7 -.69 -.4 -1.42 -.61 -2.21 -.61Z"/>
</svg>
