<svg width="166" height="26" viewBox="0 0 166 26" fill="none" xmlns="http://www.w3.org/2000/svg">
<path d="M25.1814 0.0235705C28.4572 -0.24491 31.4784 1.80414 32.4392 4.9474L33.9158 9.78041C39.1817 10.0747 42.6475 10.9577 42.7585 12.2716C42.8588 13.4689 40.1534 14.7776 35.782 15.8849L36.2048 17.2677C37.2478 20.6802 34.8705 24.1837 31.3142 24.4757L12.7849 25.9962C12.3086 26.0352 11.869 25.7365 11.7292 25.2794L9.62378 18.3927C3.92407 18.144 0.119305 17.24 0.00268577 15.8624C-0.154171 13.9867 6.57634 11.8355 15.8103 10.6183C15.8189 10.6178 15.8279 10.6182 15.8367 10.6173C16.4924 10.5517 16.9503 10.6551 17.6687 10.9376C17.696 10.9483 17.7247 10.9577 17.7527 10.9689C17.8806 11.0202 18.007 11.0755 18.1316 11.1339C18.5047 11.3091 18.8623 11.5166 19.1951 11.755C19.4182 11.9148 19.6301 12.089 19.8289 12.2765C20.0271 12.4635 20.2125 12.6641 20.3816 12.8781L21.7869 14.6417C21.8256 14.6898 21.8687 14.7313 21.9148 14.7658C21.9378 14.7829 21.9618 14.7978 21.9861 14.8117C22.0834 14.8671 22.189 14.8956 22.2908 14.8986C22.3161 14.8993 22.3413 14.8991 22.366 14.8966C22.4154 14.8917 22.4633 14.8807 22.5076 14.8634C22.5297 14.8547 22.5508 14.8439 22.571 14.8322C22.5912 14.8205 22.6108 14.8078 22.6287 14.7931C22.7006 14.734 22.7524 14.65 22.7722 14.5441L23.1345 12.6056C23.3062 11.6696 23.8373 10.8747 24.6316 10.3654L25.5603 9.76673L26.2654 9.31263C26.6239 9.08161 26.45 8.50994 25.9841 8.36048L23.8523 7.68177C22.8248 7.35671 21.8898 6.70713 21.2136 5.8517L19.822 4.08607C19.5193 3.70023 18.9446 3.75747 18.8689 4.1808L18.8621 4.18177L18.5066 6.12025C18.3349 7.05589 17.8272 7.8165 17.0505 8.40345C16.7733 8.61289 16.3974 8.84021 16.072 9.0265C15.6667 9.24373 14.4498 9.73804 13.2673 9.92005C12.0407 10.1088 10.6191 10.0227 9.01343 9.84095C7.40816 9.65916 6.71043 8.94105 6.52417 8.20716C6.52094 8.19442 6.51608 8.1835 6.51245 8.17396C5.69495 4.79286 8.08509 1.42596 11.6062 1.13685L25.1814 0.0235705ZM73.8152 14.757C73.8153 16.1906 74.1892 17.2914 74.9363 18.0587C75.6835 18.8059 76.7337 19.1798 78.0867 19.1798C79.4598 19.1798 80.5201 18.8058 81.2673 18.0587C82.0144 17.2914 82.3884 16.1906 82.3884 14.757V1.67005H86.6599V14.7267C86.6598 16.5239 86.2658 18.0489 85.4783 19.3009C84.7109 20.5327 83.6707 21.462 82.3582 22.088C81.0657 22.714 79.6215 23.0265 78.0261 23.0265C76.4509 23.0265 75.0169 22.7141 73.7244 22.088C72.4521 21.462 71.4423 20.5327 70.6951 19.3009C69.9479 18.0489 69.574 16.5239 69.574 14.7267V1.67005H73.8152V14.757ZM65.781 5.09291H57.7527V10.3947H64.8718V13.757H57.7527V19.3615H65.781V22.8146H53.5115V1.63978H65.781V5.09291ZM98.6941 1.67005C100.33 1.67006 101.724 1.96239 102.875 2.54798C104.026 3.11344 104.884 3.89145 105.45 4.88099C106.036 5.85028 106.328 6.9409 106.328 8.15248C106.328 9.54593 105.925 10.8087 105.117 11.9396C104.309 13.0503 103.107 13.8172 101.511 14.2413L106.571 22.8146H101.663L96.9978 14.5744H94.9988V22.8146H90.7576V1.67005H98.6941ZM122.433 5.09291H114.405V10.3947H121.524V13.757H114.405V19.3615H122.433V22.8146H110.164V1.63978H122.433V5.09291ZM130.528 11.1515L138.222 1.67005H143.343L134.618 12.1515L143.585 22.8146H138.222L130.528 13.3937V22.8146H126.287V1.67005H130.528V11.1515ZM165.217 22.8146H160.733L159.34 18.7853H150.919L149.525 22.8146H145.072L152.676 1.63978H157.613L165.217 22.8146ZM152.069 15.3927H158.189L155.13 6.54701L152.069 15.3927ZM94.9988 11.3937H98.5427C99.6938 11.3937 100.552 11.1215 101.118 10.5763C101.683 10.0108 101.967 9.23283 101.967 8.2433C101.966 7.27417 101.683 6.52711 101.118 6.00209C100.552 5.45685 99.6938 5.18373 98.5427 5.18373H94.9988V11.3937Z" fill="#0F0F0F"/>
</svg>
