<?xml version="1.0" encoding="UTF-8"?>
<svg id="_图层_2" data-name="图层 2" xmlns="http://www.w3.org/2000/svg" viewBox="0 0 101.18 88.91">
  <defs>
    <style>
      .cls-1 {
        fill: #fff;
      }
    </style>
  </defs>
  <g id="_图层_1-2" data-name="图层 1">
    <path class="cls-1" d="M55.73,71.59c1.6,0,3.02.34,4.27,1.03,1.27.69,2.25,1.67,2.94,2.94.71,1.25,1.06,2.7,1.06,4.33,0,.61-.04,1.15-.12,1.64h-12.27c.1,1.21.53,2.16,1.27,2.85.75.69,1.67,1.03,2.76,1.03,1.58,0,2.7-.68,3.36-2.03h4.57c-.48,1.62-1.41,2.95-2.79,4-1.37,1.03-3.06,1.54-5.06,1.54-1.62,0-3.07-.35-4.36-1.06-1.27-.73-2.27-1.75-3-3.06-.71-1.31-1.06-2.83-1.06-4.54s.35-3.26,1.06-4.57c.71-1.31,1.7-2.32,2.97-3.03,1.27-.71,2.74-1.06,4.39-1.06ZM91.36,71.59c1.25,0,2.34.25,3.27.76.95.5,1.71,1.14,2.27,1.91v-2.39h4.27v16.78h-4.27v-2.45c-.55.79-1.3,1.44-2.27,1.97-.95.5-2.05.76-3.3.76-1.41,0-2.71-.36-3.88-1.09-1.15-.73-2.07-1.75-2.76-3.06-.67-1.33-1-2.86-1-4.57s.33-3.2,1-4.51c.69-1.31,1.61-2.32,2.76-3.03,1.17-.71,2.47-1.06,3.91-1.06ZM20.21,81.1c0,1.33.33,2.36,1,3.09.67.71,1.58,1.06,2.73,1.06,1.17,0,2.09-.35,2.76-1.06.67-.73,1-1.76,1-3.09v-9.24h4.27v16.78h-4.27v-2.12c-.55.73-1.26,1.3-2.15,1.73-.87.4-1.82.61-2.85.61-1.31,0-2.47-.27-3.48-.82-1.01-.57-1.81-1.38-2.39-2.45-.57-1.09-.85-2.38-.85-3.88v-9.84h4.24v9.24ZM12.27,70.92H4.24v5.3h7.12v3.36h-7.12v5.6h8.03v3.45H0v-21.17h12.27v3.45ZM45.54,76.07h-1.12c-1.33,0-2.34.31-3.03.94-.67.63-1,1.72-1,3.27v8.36h-4.24v-16.78h4.24v2.6c.55-.89,1.25-1.58,2.12-2.09.89-.5,1.9-.76,3.03-.76v4.45ZM71.34,78.98l5.63-7.12h5.51l-7.39,8.42,7.45,8.36h-5.51l-5.7-7.15v7.15h-4.24v-22.42h4.24v12.75ZM92.45,75.31c-.79,0-1.52.19-2.18.58-.67.38-1.21.95-1.64,1.7-.4.73-.61,1.6-.61,2.6,0,1.01.2,1.9.61,2.67.42.75.97,1.32,1.64,1.73.69.4,1.41.61,2.18.61s1.52-.19,2.21-.58c.69-.4,1.23-.97,1.64-1.7.4-.75.61-1.64.61-2.67,0-1.03-.2-1.91-.61-2.63-.4-.75-.95-1.31-1.64-1.7-.69-.4-1.42-.61-2.21-.61ZM55.61,75.07c-1.05,0-1.94.32-2.66.97-.71.63-1.14,1.5-1.3,2.63h7.97c-.02-1.09-.41-1.96-1.18-2.6-.77-.67-1.71-1-2.82-1ZM56.16.04c5.82-.48,11.19,3.17,12.9,8.75l2.62,8.59c9.36.52,15.52,2.09,15.72,4.43.18,2.13-4.63,4.45-12.4,6.42l.75,2.46c1.85,6.07-2.37,12.29-8.69,12.81l-32.93,2.7c-.85.07-1.63-.46-1.88-1.27l-3.74-12.24c-10.13-.44-16.89-2.05-17.1-4.5-.28-3.33,11.69-7.16,28.11-9.32.01,0,.02,0,.04,0,1.17-.12,1.98.07,3.25.57h0s.1.04.15.06c1.36.55,2.63,1.33,3.69,2.32.09.08.17.17.26.25.25.26.5.53.72.82l2.5,3.13c.38.47,1,.57,1.39.34.18-.1.31-.28.36-.51l.64-3.45c.31-1.66,1.25-3.08,2.66-3.98l1.65-1.06h0s1.25-.81,1.25-.81c.64-.41.33-1.43-.5-1.69l-3.79-1.21c-1.83-.58-3.49-1.73-4.69-3.25l-2.47-3.14c-.54-.69-1.56-.58-1.69.17h-.01s-.63,3.45-.63,3.45c-.31,1.66-1.21,3.02-2.59,4.06-.49.37-1.16.78-1.74,1.11-.72.39-2.88,1.26-4.99,1.59-2.18.34-4.71.18-7.56-.14-2.85-.32-4.09-1.6-4.42-2.9,0-.02-.01-.04-.02-.06-1.45-6.01,2.8-11.99,9.05-12.51L56.16.04Z"/>
  </g>
</svg>