<svg width="149" height="26" viewBox="0 0 148.78 26" fill="none" xmlns="http://www.w3.org/2000/svg">
  <path fill="#0F0F0F" d="M25.1814 0.0235705C28.4572 -0.24491 31.4784 1.80414 32.4392 4.9474L33.9158 9.78041C39.1817 10.0747 42.6475 10.9577 42.7585 12.2716C42.8588 13.4689 40.1534 14.7776 35.782 15.8849L36.2048 17.2677C37.2478 20.6802 34.8705 24.1837 31.3142 24.4757L12.7849 25.9962C12.3086 26.0352 11.869 25.7365 11.7292 25.2794L9.62378 18.3927C3.92407 18.144 0.119305 17.24 0.00268577 15.8624C-0.154171 13.9867 6.57634 11.8355 15.8103 10.6183C15.8189 10.6178 15.8279 10.6182 15.8367 10.6173C16.4924 10.5517 16.9503 10.6551 17.6687 10.9376C17.696 10.9483 17.7247 10.9577 17.7527 10.9689C17.8806 11.0202 18.007 11.0755 18.1316 11.1339C18.5047 11.3091 18.8623 11.5166 19.1951 11.755C19.4182 11.9148 19.6301 12.089 19.8289 12.2765C20.0271 12.4635 20.2125 12.6641 20.3816 12.8781L21.7869 14.6417C21.8256 14.6898 21.8687 14.7313 21.9148 14.7658C21.9378 14.7829 21.9618 14.7978 21.9861 14.8117C22.0834 14.8671 22.189 14.8956 22.2908 14.8986C22.3161 14.8993 22.3413 14.8991 22.366 14.8966C22.4154 14.8917 22.4633 14.8807 22.5076 14.8634C22.5297 14.8547 22.5508 14.8439 22.571 14.8322C22.5912 14.8205 22.6108 14.8078 22.6287 14.7931C22.7006 14.734 22.7524 14.65 22.7722 14.5441L23.1345 12.6056C23.3062 11.6696 23.8373 10.8747 24.6316 10.3654L25.5603 9.76673L26.2654 9.31263C26.6239 9.08161 26.45 8.50994 25.9841 8.36048L23.8523 7.68177C22.8248 7.35671 21.8898 6.70713 21.2136 5.8517L19.822 4.08607C19.5193 3.70023 18.9446 3.75747 18.8689 4.1808L18.8621 4.18177L18.5066 6.12025C18.3349 7.05589 17.8272 7.8165 17.0505 8.40345C16.7733 8.61289 16.3974 8.84021 16.072 9.0265C15.6667 9.24373 14.4498 9.73804 13.2673 9.92005C12.0407 10.1088 10.6191 10.0227 9.01343 9.84095C7.40816 9.65916 6.71043 8.94105 6.52417 8.20716C6.52094 8.19442 6.51608 8.1835 6.51245 8.17396C5.69495 4.79286 8.08509 1.42596 11.6062 1.13685L25.1814 0.0235705Z"/>
  <path fill="#0F0F0F" d="M57.7552 14.757C57.7553 16.1906 58.1292 17.2914 58.8763 18.0587C59.6235 18.8059 60.6737 19.1798 62.0267 19.1798C63.3998 19.1798 64.4601 18.8058 65.2073 18.0587C65.9544 17.2914 66.3284 16.1906 66.3284 14.757V1.6701H70.5999V14.7267C70.5998 16.5239 70.2058 18.0489 69.4183 19.3009C68.6509 20.5327 67.6107 21.462 66.2982 22.088C65.0057 22.714 63.5615 23.0265 61.9661 23.0265C60.3909 23.0265 58.9569 22.7141 57.6644 22.088C56.3921 21.462 55.3823 20.5327 54.6351 19.3009C53.8879 18.0489 53.514 16.5239 53.514 14.7267V1.6701H57.7552V14.757Z"/>
  <path fill="#0F0F0F" d="M82.6341 1.6701C84.27 1.6701 85.664 1.9624 86.815 2.548C87.966 3.1134 88.824 3.8914 89.39 4.881C89.976 5.8503 90.268 6.9409 90.268 8.1525C90.268 9.5459 89.865 10.8087 89.057 11.9396C88.249 13.0503 87.047 13.8172 85.451 14.2413L90.511 22.8146H85.603L80.9378 14.5744H78.9388V22.8146H74.6976V1.6701H82.6341ZM78.9388 11.3937H82.4827C83.6338 11.3937 84.492 11.1215 85.058 10.5763C85.623 10.0108 85.907 9.2328 85.907 8.2433C85.906 7.2742 85.623 6.5271 85.058 6.0021C84.492 5.4569 83.6338 5.1837 82.4827 5.1837H78.9388V11.3937Z"/>
  <path fill="#0F0F0F" d="M102.54 5.77c1.6 0 3.02 .34 4.27 1.03 1.27 .69 2.25 1.67 2.94 2.94 .71 1.25 1.06 2.7 1.06 4.33 0 .61 -.04 1.15 -.12 1.64h-12.27c.1 1.21 .53 2.16 1.27 2.85 .75 .69 1.67 1.03 2.76 1.03 1.58 0 2.7 -.68 3.36 -2.03h4.57c-.48 1.62 -1.41 2.95 -2.79 4 -1.37 1.03 -3.06 1.54 -5.06 1.54 -1.62 0 -3.07 -.35 -4.36 -1.06 -1.27 -.73 -2.27 -1.75 -3 -3.06 -.71 -1.31 -1.06 -2.83 -1.06 -4.54s.35 -3.26 1.06 -4.57c.71 -1.31 1.7 -2.32 2.97 -3.03 1.27 -.71 2.74 -1.06 4.39 -1.06ZM102.42 9.25c-1.05 0 -1.94 .32 -2.66 .97 -.71 .63 -1.14 1.5 -1.3 2.63h7.97c-.02 -1.09 -.41 -1.96 -1.18 -2.6 -.77 -.67 -1.71 -1 -2.82 -1Z"/>
  <path fill="#0F0F0F" d="M118.15 13.16l5.63 -7.12h5.51l-7.39 8.42 7.45 8.36h-5.51l-5.7 -7.15v7.15h-4.24v-22.42h4.24v12.75Z"/>
  <path fill="#0F0F0F" d="M138.17 5.77c1.25 0 2.34 .25 3.27 .76 .95 .5 1.71 1.14 2.27 1.91v-2.39h4.27v16.78h-4.27v-2.45c-.55 .79 -1.3 1.44 -2.27 1.97 -.95 .5 -2.05 .76 -3.3 .76 -1.41 0 -2.71 -.36 -3.88 -1.09 -1.15 -.73 -2.07 -1.75 -2.76 -3.06 -.67 -1.33 -1 -2.86 -1 -4.57s.33 -3.2 1 -4.51c.69 -1.31 1.61 -2.32 2.76 -3.03 1.17 -.71 2.47 -1.06 3.91 -1.06ZM139.26 9.49c-.79 0 -1.52 .19 -2.18 .58 -.67 .38 -1.21 .95 -1.64 1.7 -.4 .73 -.61 1.6 -.61 2.6 0 1.01 .2 1.9 .61 2.67 .42 .75 .97 1.32 1.64 1.73 .69 .4 1.41 .61 2.18 .61s1.52 -.19 2.21 -.58c.69 -.4 1.23 -.97 1.64 -1.7 .4 -.75 .61 -1.64 .61 -2.67 0 -1.03 -.2 -1.91 -.61 -2.63 -.4 -.75 -.95 -1.31 -1.64 -1.7 -.69 -.4 -1.42 -.61 -2.21 -.61Z"/>
</svg>
