<svg xmlns="http://www.w3.org/2000/svg" viewBox="0 0 640 640" role="img" aria-labelledby="title desc">
  <title id="title">内测群二维码待替换</title>
  <desc id="desc">这不是可扫描二维码，正式图片将在内测群开放时替换。</desc>
  <rect width="640" height="640" rx="24" fill="#f4f6f7"/>
  <rect x="28" y="28" width="584" height="584" rx="18" fill="none" stroke="#252a2f" stroke-width="3"/>
  <g fill="#252a2f">
    <path d="M72 72h152v152H72zm28 28v96h96v-96z" fill-rule="evenodd"/>
    <path d="M416 72h152v152H416zm28 28v96h96v-96z" fill-rule="evenodd"/>
    <path d="M72 416h152v152H72zm28 28v96h96v-96z" fill-rule="evenodd"/>
    <rect x="284" y="88" width="28" height="28"/>
    <rect x="332" y="88" width="52" height="28"/>
    <rect x="268" y="140" width="52" height="28"/>
    <rect x="348" y="148" width="36" height="68"/>
    <rect x="272" y="264" width="96" height="24"/>
    <rect x="248" y="308" width="144" height="24"/>
    <rect x="272" y="352" width="96" height="24"/>
    <rect x="432" y="280" width="40" height="40"/>
    <rect x="500" y="264" width="68" height="28"/>
    <rect x="424" y="352" width="144" height="28"/>
    <rect x="268" y="424" width="28" height="68"/>
    <rect x="324" y="416" width="56" height="28"/>
    <rect x="332" y="472" width="28" height="84"/>
    <rect x="412" y="420" width="60" height="60"/>
    <rect x="504" y="432" width="64" height="28"/>
    <rect x="444" y="520" width="124" height="36"/>
  </g>
  <circle cx="320" cy="320" r="78" fill="#f4f6f7" stroke="#252a2f" stroke-width="3"/>
  <text x="320" y="307" text-anchor="middle" font-family="-apple-system,BlinkMacSystemFont,'Segoe UI',sans-serif" font-size="26" font-weight="700" fill="#252a2f">二维码待替换</text>
  <text x="320" y="347" text-anchor="middle" font-family="-apple-system,BlinkMacSystemFont,'Segoe UI',sans-serif" font-size="18" fill="#59616a">不可扫描</text>
</svg>
